<svg aria-hidden="true" xmlns="http://www.w3.org/2000/svg">
    <defs>
        <!-- Модальное окно иконки -->
        <symbol id="icon-email-black" viewBox="0 0 32 32">
            <path
                d="M26.667 5.333H5.334A2.663 2.663 0 0 0 2.681 8l-.013 16c0 1.467 1.2 2.667 2.667 2.667h21.333c1.467 0 2.667-1.2 2.667-2.667V8c0-1.467-1.2-2.667-2.667-2.667zM26.133 11l-9.427 5.893a1.346 1.346 0 0 1-1.413 0L5.866 11a1.132 1.132 0 1 1 1.2-1.92l8.933 5.587 8.933-5.587a1.132 1.132 0 1 1 1.2 1.92z" />
        </symbol>

        <symbol id="icon-name" viewBox="0 0 32 32">
            <path
                d="M16 16c4.42 0 8-3.58 8-8s-3.58-8-8-8-8 3.58-8 8 3.58 8 8 8zm0 4c-5.34 0-16 2.68-16 8v2c0 1.1.9 2 2 2h28c1.1 0 2-.9 2-2v-2c0-5.32-10.66-8-16-8z" />
        </symbol>

        <symbol id="icon-phone-black" viewBox="0 0 32 32">
            <path
                d="m24.882 19.773-3.268-.373a2.561 2.561 0 0 0-2.11.733L17.137 22.5a19.357 19.357 0 0 1-8.478-8.478l2.38-2.38a2.561 2.561 0 0 0 .733-2.11l-.373-3.242a2.575 2.575 0 0 0-2.56-2.277H6.613c-1.454 0-2.663 1.209-2.573 2.663.682 10.987 9.469 19.761 20.443 20.443 1.454.09 2.663-1.119 2.663-2.573V22.32a2.549 2.549 0 0 0-2.264-2.547z" />
        </symbol>

        <symbol id="icon-send" viewBox="0 0 32 32">
            <path d="M32 0 0 18l10.227 3.788L26 7 14.002 23.186l.01.004-.012-.004V32l5.735-6.691L27 28l5-28z" />
        </symbol>

        <!-- Футер форма -->
        <symbol id="icon-vector" viewBox="0 0 32 32">
            <path stroke-width=".492"
                d="m4.817 15.389-.169-.162-2.544 2.41 8.962 8.55L29.895 8.225l-2.527-2.411L11.066 21.35l-6.249-5.962z" />
        </symbol>
    </defs>
</svg>